<?xml version="1.0" standalone="no"?>
<!DOCTYPE svg PUBLIC "-//W3C//DTD SVG 20010904//EN"
 "http://www.w3.org/TR/2001/REC-SVG-20010904/DTD/svg10.dtd">
<svg version="1.0" xmlns="http://www.w3.org/2000/svg"
 width="360.000000pt" height="360.000000pt" viewBox="0 0 360.000000 360.000000"
 preserveAspectRatio="xMidYMid meet">
<metadata>
Created by potrace 1.14, written by Peter Selinger 2001-2017
</metadata>
<g transform="translate(0.000000,360.000000) scale(0.100000,-0.100000)"
fill="#000000" stroke="none">
<path d="M1312 2678 c-1 -13 -25 -133 -53 -268 -28 -135 -53 -262 -56 -282
l-5 -38 76 0 c55 0 76 -4 76 -13 0 -11 -25 -155 -45 -262 -3 -16 -13 -68 -21
-115 -8 -47 -17 -96 -20 -110 -2 -14 -18 -99 -34 -190 -17 -91 -32 -176 -35
-190 -3 -14 -8 -38 -11 -55 -3 -16 -14 -75 -24 -129 -21 -105 -20 -134 0 -69
7 21 18 52 25 68 11 26 41 103 140 360 32 83 142 367 170 440 13 33 53 136 89
228 36 93 63 173 60 178 -3 5 -30 9 -61 9 l-55 0 7 63 c14 117 -12 107 267
103 284 -4 310 -10 342 -87 34 -82 -4 -199 -95 -290 -67 -67 -152 -107 -249
-115 -41 -4 -76 -10 -78 -13 -17 -37 -108 -277 -106 -280 8 -9 185 1 247 14
235 49 470 250 558 478 100 261 -8 507 -251 571 -43 11 -142 14 -455 15 l-401
2 -2 -23z"/>
</g>
</svg>
