<?xml version="1.0" standalone="no"?>
<!DOCTYPE svg PUBLIC "-//W3C//DTD SVG 20010904//EN"
 "http://www.w3.org/TR/2001/REC-SVG-20010904/DTD/svg10.dtd">
<svg version="1.0" xmlns="http://www.w3.org/2000/svg"
 width="500.000000pt" height="500.000000pt" viewBox="0 0 500.000000 500.000000"
 preserveAspectRatio="xMidYMid meet">
<metadata>
Created by potrace 1.14, written by Peter Selinger 2001-2017
</metadata>
<g transform="translate(0.000000,500.000000) scale(0.100000,-0.100000)"
fill="#000000" stroke="none">
<path d="M2740 3714 c-25 -14 -53 -33 -62 -41 -10 -9 -18 -13 -18 -8 0 4 -7 1
-16 -6 -19 -16 -34 -25 -100 -60 -27 -15 -94 -53 -149 -86 -55 -32 -107 -62
-115 -66 -8 -4 -33 -19 -55 -32 -22 -14 -48 -28 -57 -32 -10 -3 -18 -9 -18
-14 0 -5 -9 -9 -20 -9 -11 0 -20 -4 -20 -9 0 -5 -17 -17 -37 -26 -21 -10 -46
-25 -57 -34 -10 -9 -19 -14 -20 -12 0 3 -20 -8 -43 -22 -24 -15 -45 -27 -48
-27 -2 0 -28 -15 -57 -32 -61 -38 -94 -56 -161 -92 -63 -34 -95 -56 -79 -56 7
0 10 -5 7 -10 -4 -6 -3 -10 2 -9 13 4 63 -23 63 -34 0 -6 3 -8 6 -4 3 3 28 -7
54 -23 27 -16 55 -30 62 -31 17 -3 64 17 73 31 3 5 10 8 15 5 5 -3 13 3 19 12
6 10 11 14 11 10 0 -5 12 0 28 11 23 16 63 39 167 96 11 6 22 14 25 17 11 12
186 109 198 109 7 0 12 4 12 9 0 5 10 13 22 17 12 3 26 11 32 16 19 16 126 77
146 83 11 4 20 11 20 16 0 6 5 7 10 4 6 -3 13 0 16 8 2 7 10 14 17 14 7 0 36
14 65 32 29 17 57 31 62 31 6 0 10 4 10 10 0 14 73 25 78 11 2 -6 12 -11 23
-11 10 0 19 -4 19 -10 0 -5 5 -10 11 -10 6 0 30 -14 55 -30 24 -17 44 -28 44
-25 0 3 6 1 13 -5 6 -6 48 -33 92 -59 l80 -47 2 -143 c2 -155 0 -166 -25 -175
-17 -5 -52 -26 -62 -36 -8 -8 -42 -28 -90 -51 -25 -13 -47 -26 -50 -29 -3 -4
-18 -13 -35 -21 -43 -22 -79 -43 -85 -50 -3 -4 -29 -19 -57 -34 -29 -15 -53
-31 -53 -36 0 -5 -6 -8 -12 -6 -8 1 -13 -10 -13 -30 0 -18 -4 -33 -9 -33 -4 0
-3 -6 3 -13 6 -8 8 -17 5 -20 -10 -10 -11 -50 -2 -69 6 -12 5 -18 -2 -18 -7 0
-8 -6 -2 -17 5 -10 7 -24 5 -30 -10 -27 1 -22 187 87 69 40 150 86 180 103 30
17 91 52 135 79 44 26 86 48 93 48 6 0 12 5 12 10 0 6 7 10 15 10 8 0 15 4 15
9 0 5 10 11 23 15 13 3 33 14 45 24 20 18 21 26 21 273 1 140 -2 259 -6 265
-5 6 -18 14 -30 18 -13 4 -23 12 -23 17 0 6 -4 7 -10 4 -5 -3 -10 -1 -10 4 0
6 -5 11 -10 11 -6 0 -48 23 -94 50 -46 28 -88 50 -95 50 -6 0 -11 4 -11 9 0 5
-16 15 -35 22 -19 7 -35 16 -35 19 0 4 -18 15 -40 25 -22 10 -40 22 -40 27 0
5 -4 7 -8 4 -5 -3 -19 4 -30 15 -12 11 -22 17 -22 14 0 -2 -22 9 -49 25 -26
17 -54 30 -62 30 -8 0 -34 -12 -59 -26z"/>
<path d="M2916 3323 c-10 -3 -24 -9 -30 -14 -21 -18 -145 -89 -155 -89 -6 0
-11 -4 -11 -10 0 -5 -5 -10 -10 -10 -6 0 -28 -11 -50 -25 -22 -14 -40 -22 -40
-18 0 5 -4 2 -8 -4 -8 -13 -77 -55 -124 -75 -16 -7 -28 -16 -28 -20 0 -4 -5
-8 -11 -8 -6 0 -51 -25 -101 -55 -49 -30 -91 -55 -93 -55 -2 0 -38 -20 -79
-45 -42 -25 -80 -45 -85 -45 -4 0 -18 -9 -31 -20 -12 -11 -27 -17 -31 -14 -5
3 -9 1 -9 -4 0 -5 -24 -21 -52 -35 -99 -50 -103 -57 -102 -172 1 -55 2 -108 2
-117 2 -13 27 -3 122 52 66 38 120 66 120 63 0 -3 9 4 19 16 11 12 22 22 25
22 17 -2 24 1 46 22 14 12 26 21 27 20 6 -4 43 10 43 16 0 10 71 43 78 36 3
-2 6 -291 7 -640 0 -349 3 -636 6 -638 2 -2 41 17 87 44 45 26 82 45 82 43 0
-3 6 0 13 6 6 6 20 16 29 23 17 11 18 58 20 665 l3 653 30 17 c17 9 32 20 33
25 2 4 7 7 12 7 5 0 44 21 87 47 43 25 84 46 91 46 6 0 12 4 12 8 0 9 61 44
72 41 3 -1 12 5 18 13 7 8 16 15 21 15 5 0 38 19 73 41 58 39 62 44 57 71 -4
21 -18 35 -46 51 -22 12 -42 25 -43 30 -2 4 -7 5 -12 2 -4 -3 -13 2 -20 10
-12 15 -28 17 -64 8z"/>
<path d="M2215 2432 c-16 -9 -33 -21 -37 -27 -5 -7 -8 -7 -8 0 0 6 -5 3 -10
-5 -5 -8 -13 -15 -17 -15 -15 -1 -103 -57 -111 -70 -12 -23 -3 -1045 10 -1045
6 0 34 14 62 32 28 17 71 42 96 56 25 13 50 29 55 34 15 13 15 1058 1 1058 -6
0 -24 -8 -41 -18z"/>
</g>
</svg>
